# xmcd CD database file
#
# Track frame offsets:
#	150
#	18477
#	36135
#	56032
#	73522
#	100570
#	110705
#	126770
#	145135
#	163057
#
# Disc length: 2450 seconds
#
# Revision: 0
# Processed by: cddbd v1.5.2PL0 Copyright (c) Steve Scherf et al.
# Submitted via: CDex 1.70beta2
#
DISCID=8809900a
DTITLE=Bryn Haworth - Keep the Ball Rolling
DYEAR=1979
DGENRE=Blues
TTITLE0=Keep the Ball Rolling
TTITLE1=First Time
TTITLE2=Let Me Love You
TTITLE3=Standing On the Rock
TTITLE4=City Boy
TTITLE5=Party Girl
TTITLE6=Luxury Liner
TTITLE7=Unchained Melody
TTITLE8=Unemployment Blues
TTITLE9=Working For Love
EXTD=YEAR: 1979
EXTT0=
EXTT1=
EXTT2=
EXTT3=
EXTT4=
EXTT5=
EXTT6=
EXTT7=
EXTT8=
EXTT9=
PLAYORDER=
